HIERARCHY
ROOT hip
{
	OFFSET 0.000000 0.000000 0.000000 
	CHANNELS 6 Xposition Yposition Zposition Xrotation Zrotation Yrotation
	JOINT abdomen
	{
		OFFSET 0.000000 3.402643 0.000000 
		CHANNELS 3 Xrotation Zrotation Yrotation
		JOINT chest
		{
			OFFSET 0.000000 8.438565 -0.680529 
			CHANNELS 3 Xrotation Zrotation Yrotation
			JOINT neck
			{
				OFFSET 0.000000 10.207942 -0.272212 
				CHANNELS 3 Xrotation Zrotation Yrotation
				JOINT head
				{
					OFFSET 0.000000 3.130431 0.000000 
					CHANNELS 3 Xrotation Zrotation Yrotation
					End Site
					{
						OFFSET 0.000000 3.130435 0.000000 
					}
				}
			}
			JOINT lCollar
			{
				OFFSET 3.470700 6.669187 -0.816635 
				CHANNELS 3 Yrotation Zrotation Xrotation
				JOINT lShldr
				{
					OFFSET 3.198488 0.000000 0.000000 
					CHANNELS 3 Zrotation Yrotation Xrotation
					JOINT lForeArm
					{
						OFFSET 10.139888 0.000000 0.000000 
						CHANNELS 3 Yrotation Zrotation Xrotation
						JOINT lHand
						{
							OFFSET 8.370511 0.000000 0.000000 
							CHANNELS 3 Zrotation Yrotation Xrotation
							End Site
							{
								OFFSET 4.083176 0.000000 0.000000 
							}
						}
					}
				}
			}
			JOINT rCollar
			{
				OFFSET -3.470700 6.669187 -0.816635 
				CHANNELS 3 Yrotation Zrotation Xrotation
				JOINT rShldr
				{
					OFFSET -3.198488 0.000000 0.000000 
					CHANNELS 3 Zrotation Yrotation Xrotation
					JOINT rForeArm
					{
						OFFSET -10.139888 0.000000 0.000000 
						CHANNELS 3 Yrotation Zrotation Xrotation
						JOINT rHand
						{
							OFFSET -8.370511 0.000000 0.000000 
							CHANNELS 3 Zrotation Yrotation Xrotation
							End Site
							{
								OFFSET -4.083176 0.000000 0.000000 
							}
						}
					}
				}
			}
		}
	}
	JOINT lThigh
	{
		OFFSET 5.308129 -1.633274 1.361059 
		CHANNELS 3 Xrotation Zrotation Yrotation
		JOINT lShin
		{
			OFFSET -2.041588 -20.007561 0.000000 
			CHANNELS 3 Xrotation Zrotation Yrotation
			JOINT lFoot
			{
				OFFSET 0.000000 -19.190928 -1.224953 
				CHANNELS 3 Xrotation Yrotation Zrotation
				End Site
				{
					OFFSET 0.000000 -2.449906 4.627600 
				}
			}
		}
	}
	JOINT rThigh
	{
		OFFSET -5.308129 -1.633274 1.361059 
		CHANNELS 3 Xrotation Zrotation Yrotation
		JOINT rShin
		{
			OFFSET 2.041588 -20.007561 0.000000 
			CHANNELS 3 Xrotation Zrotation Yrotation
			JOINT rFoot
			{
				OFFSET 0.000000 -19.190928 -1.224953 
				CHANNELS 3 Xrotation Yrotation Zrotation
				End Site
				{
					OFFSET 0.000000 -2.449906 4.627600 
				}
			}
		}
	}
}
MOTION
Frames: 18
Frame Time: 0.016667
-6.816089 47.421597 0.692828 1.129940 3.424707 -9.920068 24.799145 -9.912794 4.390910 -6.594387 -0.281402 6.464910 26.584160 -6.640252 -0.610441 -32.392849 0.151358 14.375050 7.002047 12.701987 22.851839 -69.120712 -15.080848 11.679626 -99.060493 47.482418 32.970085 -45.742962 -39.230297 21.634180 -5.944819 -6.277785 23.949089 47.884583 16.379875 101.379089 28.602528 -34.967388 24.432941 48.891521 52.707882 9.668377 -24.510820 27.164961 25.296438 54.955181 -1.098622 -2.686934 -2.812223 -13.018967 -10.804130 -33.503567 -14.042227 -1.771151 53.757252 9.462796 6.062212 -4.664929 -2.916797 13.940897 
-6.539629 47.592953 0.717966 1.135406 3.476456 -10.468266 24.799145 -9.912794 4.390910 -6.511661 -0.067918 6.513667 26.435717 -6.562144 -0.600728 -32.008862 0.047169 14.980480 6.870139 14.130852 22.715311 -69.325821 -16.275654 11.754392 -100.687912 49.206596 36.527084 -44.933651 -38.413101 20.310976 -6.782974 -6.233327 23.849916 47.502346 13.962843 102.202843 29.954584 -34.828545 23.051773 50.216721 52.499393 12.068759 -23.102987 26.719761 25.357641 51.383942 -0.580528 -2.366497 -2.146640 -14.780386 -11.184766 -32.938515 -14.150024 -1.865585 52.557259 9.298607 5.942829 -3.983009 -2.497135 14.344090 
-6.263120 47.764210 0.743147 1.142295 3.518216 -11.007313 24.799145 -9.912794 4.390910 -6.428571 0.145525 6.562529 26.277433 -6.474269 -0.589908 -31.636845 -0.056436 15.595706 6.738762 15.555170 22.579468 -69.542923 -17.458778 11.827794 -102.536163 50.845131 40.288349 -44.164459 -37.573391 19.028250 -7.626192 -6.199667 23.747131 47.084305 11.549916 103.038902 31.312016 -34.712902 21.660086 51.531948 52.254623 14.459669 -21.689255 26.287802 25.408543 47.818897 -0.060144 -2.109282 -1.502939 -16.512516 -11.547640 -32.390743 -14.266943 -1.928339 51.385464 9.160159 5.816382 -3.284664 -2.079942 14.769959 
-5.955151 47.863327 0.796908 1.110256 3.270615 -11.698838 24.799145 -9.912794 4.390910 -6.345127 0.688653 6.680259 26.219967 -5.409943 -0.510154 -31.217348 -0.056317 16.025394 6.537549 17.427616 22.427151 -70.923752 -18.359652 12.355750 -103.862137 52.470921 43.525204 -45.179733 -37.484550 19.621750 -8.312819 -6.152701 23.669371 46.612217 9.029722 104.017006 31.160938 -34.617661 17.161354 53.458305 51.752628 17.654997 -20.076122 25.899267 25.493237 44.479301 0.347848 -1.830494 -1.036116 -18.015171 -11.911931 -31.871151 -14.109834 -1.896064 50.390060 9.062589 5.679816 -2.757938 -1.720365 15.298079 
-5.647093 47.962360 0.850719 1.076429 3.014194 -12.390062 24.799145 -9.912794 4.390910 -6.258289 1.241214 6.798657 26.155626 -4.335815 -0.431411 -30.797855 -0.056191 16.464844 6.345478 19.316399 22.278278 -72.326340 -19.249811 12.909721 -105.400078 54.052811 46.942886 -46.189220 -37.381081 20.204298 -8.990421 -6.100605 23.590679 46.109940 6.513526 105.010147 31.009100 -34.509216 12.668056 55.317337 51.188625 20.769482 -18.465549 25.500809 25.557751 41.156132 0.768424 -1.558734 -0.600150 -19.540575 -12.245898 -31.353724 -13.924286 -1.859079 49.398544 8.944664 5.509974 -2.228129 -1.354258 15.844218 
-5.278477 47.997501 0.940504 0.902465 2.642923 -13.226952 24.799145 -9.912794 4.390910 -5.996262 1.996876 6.967149 25.867628 -3.017524 -0.342351 -30.634768 0.000000 16.679688 6.027332 21.052380 22.201431 -73.847496 -19.630251 13.478394 -106.486778 55.224586 49.219486 -47.696163 -37.651218 21.482203 -9.623018 -6.151465 23.494425 45.619598 4.297272 106.002930 29.899925 -34.521923 7.061463 57.735882 50.313889 24.124872 -16.718132 25.063562 25.605959 38.550804 0.797595 -1.428809 -0.793280 -19.952747 -12.087141 -30.775606 -13.777029 -1.834133 48.593307 8.844110 5.403654 -1.831659 -0.820933 16.277714 
-4.909719 48.032543 1.030294 0.729820 2.273668 -14.054156 24.799145 -9.912794 4.390910 -5.738315 2.761671 7.137523 25.583414 -1.699203 -0.244323 -30.471243 0.056062 16.904310 5.717733 22.788343 22.136683 -75.380318 -19.996199 14.060513 -107.712753 56.382271 51.616638 -49.212345 -37.895226 22.759178 -10.258723 -6.193536 23.405231 45.094784 2.083127 107.008987 28.794230 -34.447842 1.467033 60.022366 49.354614 27.358517 -14.989728 24.613491 25.654913 35.984871 0.817378 -1.296156 -1.018324 -20.390697 -11.915034 -30.203381 -13.632324 -1.847005 47.839302 8.730132 5.321334 -1.485753 -0.292485 16.717093 
-4.445542 48.004463 1.122964 0.646474 2.226929 -14.933110 24.799145 -9.912794 4.390910 -5.540728 3.409791 7.288579 24.944801 -0.996088 -0.195453 -30.489483 0.028016 17.001955 5.201666 24.142159 22.227840 -76.492851 -19.800156 14.442797 -108.471130 57.110775 52.640461 -50.171272 -38.031590 23.554123 -10.910692 -6.522615 23.247984 44.770378 0.410816 107.923294 27.143286 -34.814194 -3.121362 61.742088 48.547398 29.501572 -13.671595 23.763460 25.415627 34.413231 0.411809 -1.282955 -1.888939 -18.993914 -11.413264 -30.103888 -13.865625 -1.910458 47.379124 8.437070 5.205653 -1.187153 0.626827 16.938684 
-3.981236 47.976349 1.215599 0.564428 2.179975 -15.812448 24.799145 -9.912794 4.390910 -5.348198 4.067141 7.441175 24.297651 -0.302733 -0.146534 -30.500917 -0.009334 17.099611 4.680542 25.496199 22.332050 -77.603104 -19.599112 14.832241 -109.279694 57.836853 53.712841 -51.153431 -38.146427 24.375462 -11.568466 -6.839738 23.088167 44.421841 -1.258822 108.838593 25.459736 -35.074322 -7.738024 63.395977 47.695351 31.580248 -12.372314 22.910099 25.180490 32.846840 0.024479 -1.272753 -2.790031 -17.593647 -10.903000 -30.006077 -14.090188 -1.976462 46.928642 8.144109 5.094221 -0.891345 1.546789 17.134449 
-3.438301 47.919682 1.284192 0.503032 2.573914 -16.589272 24.799145 -9.912794 4.390910 -5.181350 4.405369 7.512986 23.448414 -0.449217 -0.146556 -30.502081 -0.140002 17.109421 4.021887 26.551319 22.562971 -78.386063 -19.030771 15.096679 -109.597290 58.200569 54.025330 -51.387726 -38.272442 24.506989 -12.231318 -7.325076 22.888960 44.200317 -2.250537 109.417496 23.804903 -35.515072 -10.847492 64.072739 47.209904 32.432961 -11.904587 21.698898 24.658772 32.482765 -0.500553 -1.400439 -4.180161 -14.989087 -9.850467 -30.384172 -14.752891 -2.175420 46.805420 7.614593 4.938295 -0.446799 2.671747 17.369442 
-2.895289 47.863029 1.352730 0.431349 2.964302 -17.357527 24.799145 -9.912794 4.390910 -5.001778 4.753054 7.594778 22.599308 -0.605466 -0.156344 -30.496443 -0.279974 17.129076 3.348545 27.605078 22.814993 -79.153740 -18.463400 15.355639 -109.910133 58.555294 54.348511 -51.630604 -38.396236 24.652031 -12.909468 -7.805872 22.667986 43.960503 -3.253836 110.009933 22.119335 -35.883564 -13.979303 64.721115 46.734547 33.257545 -11.424902 20.469973 24.172289 32.072098 -1.017804 -1.520113 -5.610159 -12.427287 -8.738740 -30.777567 -15.437732 -2.394332 46.681606 7.049885 4.789994 0.007622 3.794950 17.593920 
-2.303433 47.811825 1.386229 0.364306 3.770335 -18.047771 24.799145 -9.912794 4.390910 -4.861279 4.714441 7.585042 21.821299 -1.367179 -0.205253 -30.230291 -0.363678 17.275713 3.011454 28.628857 22.914064 -80.048683 -17.770338 15.643561 -109.243988 58.390884 54.016903 -51.295185 -38.721756 24.396664 -13.370830 -8.405294 22.440113 43.909744 -3.682421 110.302483 20.753687 -36.173679 -16.112009 64.875809 46.466377 33.497421 -11.698306 19.046085 23.494013 32.456390 -1.511391 -1.653701 -6.887508 -9.958491 -7.729101 -31.666985 -16.414568 -2.669925 46.780045 6.288141 4.615019 0.806534 4.878489 17.801174 
-1.711531 47.760628 1.419686 0.277644 4.569489 -18.742985 24.799145 -9.912794 4.390910 -4.720767 4.675826 7.574507 21.044233 -2.128887 -0.244335 -29.954802 -0.447246 17.422396 2.655265 29.649376 23.039204 -80.936874 -17.075968 15.933950 -108.575928 58.228558 53.676353 -50.962334 -39.049450 24.134533 -13.838710 -8.999053 22.203465 43.856007 -4.110573 110.596230 19.367453 -36.425663 -18.265844 65.027618 46.210293 33.735546 -11.951290 17.618484 22.854401 32.884563 -1.984662 -1.787997 -8.236634 -7.557081 -6.651082 -32.551823 -17.398520 -2.925324 46.885693 5.546137 4.467044 1.608477 5.967802 18.004660 
-1.089821 47.724743 1.424313 0.199953 5.672085 -19.522760 24.799145 -9.912794 4.390910 -4.639065 4.376422 7.502498 20.416916 -3.027299 -0.313096 -29.620823 -0.278940 17.802944 3.053137 29.822395 22.748163 -82.113159 -16.270042 16.322691 -106.774727 57.338661 52.586666 -50.122013 -39.651421 23.578753 -13.902642 -9.786036 21.989630 43.976856 -4.058602 110.636780 18.525671 -36.652790 -19.453535 64.967827 46.062233 33.700966 -12.537749 16.167055 22.175415 33.474300 -2.468325 -1.910064 -9.120224 -6.077355 -6.126956 -34.061478 -18.544437 -3.258566 47.430458 4.697129 4.351970 3.019282 6.883875 18.069845 
-0.468120 47.688892 1.428909 0.100390 6.773101 -20.293455 24.799145 -9.912794 4.390910 -4.554647 4.086508 7.441175 19.791155 -3.935464 -0.372229 -29.297426 -0.120613 18.183636 3.449619 29.988491 22.444115 -83.278679 -15.455931 16.680771 -105.026283 56.421879 51.551914 -49.265434 -40.246521 23.000969 -13.969004 -10.557499 21.768417 44.107124 -4.003375 110.667496 17.672548 -36.872696 -20.657251 64.908081 45.914120 33.666847 -13.105091 14.705975 21.553673 34.078899 -2.941317 -2.055162 -10.007328 -4.597662 -5.555972 -35.572029 -19.685003 -3.553987 47.961197 3.847177 4.227220 4.437963 7.807537 18.114721 
0.147509 47.675873 1.413258 -0.236016 7.690951 -21.383099 24.799145 -9.912794 4.390910 -4.061967 3.922325 7.391085 18.998770 -4.619016 -0.421704 -28.998423 0.388186 18.838367 4.405925 29.997751 21.804184 -84.557610 -14.299609 17.080675 -102.958405 54.968304 50.455322 -47.882111 -40.959068 22.022848 -13.671195 -11.393542 21.623041 44.139961 -3.468951 110.286995 17.471989 -37.235783 -20.713707 64.536819 45.916409 33.307388 -13.385446 13.586327 21.093977 34.780956 -3.605962 -2.249620 -10.829611 -3.529644 -5.113801 -37.444778 -20.435757 -3.711826 49.248100 3.076059 4.175086 6.252106 7.951933 17.963451 
0.763066 47.662815 1.397560 -0.592704 8.601225 -22.482227 24.799145 -9.912794 4.390910 -3.557337 3.767704 7.350131 18.216507 -5.312329 -0.461534 -28.700674 0.883711 19.504511 5.357720 29.993349 21.176418 -85.831718 -13.122566 17.458897 -100.999878 53.475082 49.479584 -46.472107 -41.644554 21.007051 -13.379932 -12.229228 21.469349 44.177319 -2.930681 109.896698 17.267721 -37.593006 -20.764608 64.161209 45.912815 32.940140 -13.651227 12.497746 20.641565 35.465672 -4.274888 -2.423712 -11.656898 -2.457107 -4.705770 -39.319069 -21.196911 -3.855121 50.512417 2.284982 4.121397 8.096136 8.057381 17.824333 
1.333984 47.624752 1.354318 -0.817369 9.338778 -23.621618 24.799145 -9.912794 4.390910 -3.084701 3.661406 7.320254 17.250341 -5.390452 -0.461542 -28.456299 1.567132 20.213215 6.424110 30.000000 20.393171 -87.180725 -11.668134 17.868923 -99.308487 51.596680 48.955776 -44.937569 -42.247051 19.797762 -13.007501 -12.968538 21.384247 44.100174 -2.070685 109.238350 17.313854 -38.026234 -20.404182 63.530396 46.038460 32.386875 -14.060480 11.666381 20.291658 36.103874 -4.939397 -2.601846 -12.367307 -1.433657 -4.017663 -41.858280 -21.431675 -3.782862 52.933910 1.513551 4.196616 9.434031 6.991265 17.729958 
